# xmcd
#
# Track frame offsets: 
#        150
#        13518
#        36905
#        50973
#        62518
#        75003
#        94255
#        106368
#        120023
#        136293
#        153713
#        165955
#
# Disc length: 2414 seconds
#
# Revision: 7
# Processed by: cddbd v1.5.2PL0 Copyright (c) Steve Scherf et al.
# Submitted via: ExactAudioCopyFreeDBPlugin 1.0
#
DISCID=89096c0c
DTITLE=Various Artist - Didn't It Blow Your Mind!:  Soul Hits of the 
DTITLE='70s [Rhino series]
DYEAR=1991
DGENRE=SMB
TTITLE0=The Friends of Distinction - Grazing in the Grass
TTITLE1=The Edwin Hawkins Singers - Oh Happy Day
TTITLE2=The Winstons - Color Him Father
TTITLE3=The Honey Cone - While You're Out Looking for Sugar
TTITLE4=R.B. Greaves - Take A Letter Maria
TTITLE5=The Friends of Distinction - Going in Circles
TTITLE6=The Glass House - Crumbs Off the Table
TTITLE7=Flaming Ember - Mind, Body and Soul
TTITLE8=Eddie Holman - Hey There Lonely Girl
TTITLE9=Brook Benton - Rainy Night in Georgia
TTITLE10=The Chairmen of the Board - Give Me Just a Little More Time
TTITLE11=The Delfonics - Didn't I (Blow Your Mind This Time)
EXTD=
EXTT0=The Friends of Distinction
EXTT1=The Edwin Hawkins' Singers
EXTT2=The Winstons
EXTT3=The Honey Cone
EXTT4=R. B. Graves
EXTT5=The Friends of Distinction
EXTT6=The Glass House
EXTT7=the Flaming Ember
EXTT8=Eddie Holman
EXTT9=Brook Benton
EXTT10=Chairmen Of The Board
EXTT11=The Delfonics
PLAYORDER=
